<svg xmlns="http://www.w3.org/2000/svg" xmlns:xlink="http://www.w3.org/1999/xlink" id="Layer_2" data-name="Layer 2" viewBox="0 0 1920 412.92"><defs><style>.cls-1{fill:none}.cls-2{fill:#e85849}.cls-3{fill:#ff755d}.cls-4{fill:#d95244}.cls-5{fill:#b7463a}.cls-6{fill:#c64b3f}.cls-7{fill:#f9695a}.cls-8{fill:#ff8a75}.cls-9{clip-path:url(#clippath)}</style><clipPath id="clippath"><polygon points="0 135.59 0 412.92 955.66 412.92 491.95 209.64 398.22 245.23 147.63 63.89 0 135.59" class="cls-1"/></clipPath></defs><g id="_图层_3" data-name="图层 3"><g><g><polygon points="485.61 52.47 647.55 101.66 739.29 61.41 932.78 200.05 1137.4 88.25 1188.77 154.77 1377.04 96.07 1495.5 204.38 1639.5 96.07 1920 240.3 1920 412.92 49.28 412.92 49.28 240.3 485.61 52.47" class="cls-3"/><polygon points="485.61 52.47 724.83 193.53 647.55 101.66 485.61 52.47" class="cls-8"/><polygon points="1137.4 88.25 1232.71 141.07 1188.77 154.77 1137.4 88.25" class="cls-8"/><polygon points="1377.04 96.07 1549.07 164.09 1495.5 204.38 1377.04 96.07" class="cls-8"/></g><polygon points="522.69 130.81 625 199.01 901.72 0 1146.01 230.6 1283.53 162.68 1582.61 412.92 91.12 412.92 522.69 130.81" class="cls-2"/><polygon points="522.69 130.81 451.7 385.45 374.22 227.86 522.69 130.81" class="cls-4"/><polygon points="901.72 0 855.88 276.44 766.99 192.59 775.38 291.53 715 274.76 765.31 375.39 379.58 385.45 625 199.01 901.72 0" class="cls-4"/><g><polygon points="0 135.59 0 412.92 955.66 412.92 491.95 209.64 398.22 245.23 147.63 63.89 0 135.59" class="cls-6"/><g class="cls-9"><path d="M147.4,26.99c.37,6.34,1.49,157.27,1.49,157.27l-72.3,11.55,49.19,183.92-69.32-10.06v68.92l-133.61-35.38L-23.29,79.75,147.4,26.99Z" class="cls-5"/><polygon points="495.3 204.05 208.52 327.59 385.73 327.59 432.13 445.55 507.04 428.22 460.08 347.72 507.04 363.37 464 251.28 495.3 204.05" class="cls-5"/></g></g><polygon points="1283.53 162.68 1337.76 412.92 1146.01 230.6 1283.53 162.68" class="cls-4"/><polygon points="1283.53 162.68 1489.81 412.92 1582.61 412.92 1283.53 162.68" class="cls-7"/><g><polygon points="1920 240.38 1852.62 290.7 1760.38 201.81 1359 412.92 1920 412.92 1920 240.38" class="cls-6"/><polygon points="1760.38 201.81 1719.02 315.29 1672.06 329.83 1684.36 412.92 1337.76 412.92 1760.38 201.81" class="cls-5"/><polygon points="1154.4 412.92 1337.76 323.68 1471.37 412.92 1154.4 412.92" class="cls-6"/><polygon points="1337.76 323.68 1327.98 389.92 1290.24 379.86 1290.24 412.92 1154.4 412.92 1337.76 323.68" class="cls-5"/></g><polygon points="901.72 0 1184.81 211.44 1146.01 230.6 901.72 0" class="cls-7"/><polygon points="1184.81 211.44 1146.01 230.6 1200.88 282.77 1184.81 211.44" class="cls-7"/><polygon points="522.69 130.81 583.42 230.6 625 199.01 522.69 130.81" class="cls-7"/></g></g></svg>