<svg xmlns="http://www.w3.org/2000/svg" id="_图层_3" data-name="图层_3" version="1.1" viewBox="0 0 158.7 158.7"><defs><style>.st0{fill:#f9e3b6}.st1,.st2{opacity:.3}.st1,.st3{fill:#ddc796}.st4{opacity:.9}.st5{fill:#faf0d5}</style></defs><circle cx="79.3" cy="78.2" r="72.8" class="st0"/><path d="M79.3,5.3c-18.6,0-35.6,7-48.5,18.5-2.7,39.6,15.8,78.3,51,98.7,13.3,7.7,27.7,12,42.2,13.2,17.1-13.3,28.1-34.1,28.1-57.5,0-40.2-32.6-72.8-72.8-72.8Z" class="st5"/><g><g class="st2"><circle cx="125.6" cy="60.5" r="10.6" class="st3"/><circle cx="82.5" cy="29.1" r="7.7" class="st3"/><circle cx="88.3" cy="56.5" r="5.6" class="st3"/><circle cx="102.9" cy="87.5" r="4" class="st3"/><circle cx="61.5" cy="69.3" r="4" class="st3"/><circle cx="109.6" cy="26.6" r="2.6" class="st3"/><circle cx="127.4" cy="95.8" r="3" class="st3"/></g><g class="st4"><circle cx="29.4" cy="94.6" r="9.7" class="st3"/><circle cx="49.8" cy="125.6" r="4.8" class="st3"/><circle cx="18" cy="65.6" r="2.2" class="st3"/><circle cx="31" cy="48.2" r="3.4" class="st3"/><ellipse cx="71.5" cy="140.6" class="st3" rx="3" ry="3.1" transform="translate(-76.4 195.6) rotate(-83.4)"/></g><circle cx="75.6" cy="104.9" r="7.2" class="st1"/></g></svg>